 <svg version="1.0" xmlns="http://www.w3.org/2000/svg" width="700.000000pt" height="311.000000pt" viewBox="0 0 700.000000 311.000000" preserveAspectRatio="xMidYMid meet">
<metadata>
Created by potrace 1.12, written by Peter Selinger 2001-2015
</metadata>
<g transform="translate(0.000000,311.000000) scale(0.100000,-0.100000)" fill="#000000" stroke="none">
<path d="M1073 2832 c-13 -2 -32 -15 -43 -30 -41 -53 -130 -188 -147 -222 -10
-19 -39 -67 -65 -107 -27 -39 -48 -74 -48 -77 0 -7 -104 -169 -155 -241 -20
-27 -41 -59 -48 -70 -40 -68 -57 -96 -105 -167 -28 -43 -73 -113 -98 -156 -26
-42 -60 -95 -76 -117 -74 -103 -80 -116 -73 -161 4 -29 17 -55 41 -81 29 -31
34 -43 29 -69 -7 -39 13 -94 62 -175 57 -93 59 -96 103 -192 22 -49 53 -105
69 -125 16 -20 43 -64 61 -97 17 -33 41 -71 54 -85 13 -14 37 -56 54 -93 18
-38 45 -86 61 -106 16 -20 52 -84 81 -141 28 -58 60 -114 71 -125 19 -20 35
-20 2604 -23 l2584 -2 18 27 c9 16 29 42 44 59 15 18 39 58 54 90 15 33 37 70
50 84 12 14 48 75 80 135 31 61 65 119 75 130 21 23 70 111 70 126 0 5 17 31
38 57 20 26 45 68 56 92 10 25 22 52 27 60 13 21 32 66 53 123 10 26 29 61 42
77 14 16 34 57 45 91 12 35 27 72 35 83 8 11 14 30 14 42 0 12 7 24 15 28 8 3
15 11 15 18 0 10 -77 136 -142 230 -10 15 -23 38 -28 50 -6 13 -30 50 -54 83
-25 33 -70 103 -102 155 -32 52 -87 140 -123 195 -187 289 -232 359 -266 420
-16 28 -43 68 -60 90 -18 22 -39 54 -48 71 -9 17 -24 35 -34 40 -16 8 -4836
14 -4890 6z m4831 -52 c24 -8 45 -26 66 -56 16 -25 30 -48 30 -52 0 -4 16 -31
35 -61 19 -29 51 -83 72 -119 20 -37 46 -80 58 -97 11 -16 61 -97 110 -180 48
-82 112 -188 140 -235 29 -47 58 -96 65 -110 12 -24 93 -157 152 -249 36 -57
35 -81 -5 -144 -39 -61 -121 -195 -153 -252 -12 -22 -54 -92 -93 -155 -38 -63
-100 -166 -138 -228 -37 -62 -95 -157 -128 -212 -33 -54 -85 -140 -115 -191
-41 -69 -63 -95 -87 -106 -27 -11 -439 -13 -2419 -13 l-2387 0 -37 40 c-21 22
-49 62 -63 88 -28 53 -110 191 -158 267 -17 28 -58 95 -91 150 -33 55 -70 116
-82 135 -13 19 -63 103 -112 185 -49 83 -98 164 -109 182 -79 124 -95 154 -95
180 0 16 23 66 54 118 30 50 71 119 92 155 20 36 47 81 59 100 45 71 90 146
105 172 44 80 147 249 176 291 19 26 34 50 34 55 0 4 23 43 50 87 27 44 66
110 85 147 44 80 64 99 112 107 20 3 1095 8 2388 10 1796 2 2361 1 2389 -9z"></path>
<path d="M240 1745 c0 -8 2 -15 4 -15 2 0 6 7 10 15 3 8 1 15 -4 15 -6 0 -10
-7 -10 -15z"></path>
<path d="M6803 1673 c9 -11 17 -25 17 -31 0 -7 7 -12 15 -12 21 0 8 26 -23 46
-27 17 -27 17 -9 -3z"></path>
<path d="M160 1599 c0 -11 5 -17 10 -14 6 3 10 13 10 21 0 8 -4 14 -10 14 -5
0 -10 -9 -10 -21z"></path>
<path d="M6860 1577 c0 -20 4 -37 10 -37 5 0 7 14 3 33 -8 45 -13 47 -13 4z"></path>
</g>
</svg>